<svg width="227" height="182" viewBox="0 0 227 182" fill="none" xmlns="http://www.w3.org/2000/svg">
<rect x="113.728" y="93.0949" width="63.5185" height="62.0648" transform="rotate(44.1028 113.728 93.0949)" fill="#FF9742"/>
<rect x="128.93" y="84.9093" width="44.6927" height="17.8309" transform="rotate(-44.9685 128.93 84.9093)" fill="#FF9742"/>
<rect x="129.64" y="85.4444" width="17.6515" height="55.0453" transform="rotate(-44.5646 129.64 85.4444)" fill="#FF9742"/>
<rect x="213.776" y="52.3838" width="17.6515" height="68.163" transform="rotate(43.8322 213.776 52.3838)" fill="#FF9742"/>
<rect width="44.6929" height="17.831" transform="matrix(-0.707499 -0.706715 -0.70672 0.707493 98.5815 86.3297)" fill="#FF9742"/>
<rect width="17.6516" height="55.0455" transform="matrix(-0.712463 -0.70171 -0.701716 0.712457 97.2556 87.8052)" fill="#FF9742"/>
<path d="M13.5049 54.3747L0.386208 66.8179L47.5929 116.14L60.7115 103.546L13.5049 54.3747Z" fill="#FF9742"/>
<path d="M160.178 25.3512L174.256 11.4229L226.501 64.6062L200.242 66.4004L160.178 25.3512Z" fill="#3568C0"/>
<path d="M67.1485 27.6544L53.2831 13.8161L0.385189 66.8178L26.9833 68.6273L67.1485 27.6544Z" fill="#3568C0"/>
<rect x="99.2161" y="63.5807" width="90.0593" height="21.2556" transform="rotate(-44.4619 99.2161 63.5807)" fill="#3568C0"/>
<rect x="113.696" y="77.577" width="87.9682" height="21.2556" transform="rotate(-135.566 113.696 77.577)" fill="#3568C0"/>
</svg>
