<svg width="112" height="113" viewBox="0 0 112 113" fill="none" xmlns="http://www.w3.org/2000/svg">
<g clip-path="url(#clip0_4824_4997)">
<path d="M56.0772 25.9002C56.2674 25.9004 56.4576 25.9005 56.6536 25.9006C73.3898 25.9482 87.5498 35.0943 99.0274 46.5719C100.03 47.5877 100.966 48.619 101.847 49.7435C102.289 50.3041 102.747 50.8452 103.213 51.3855C103.714 51.9682 104.206 52.5588 104.696 53.1506C104.858 53.344 105.019 53.5373 105.186 53.7365C105.325 53.9152 105.463 54.094 105.606 54.2782C105.786 54.5047 105.786 54.5047 105.969 54.7358C106.359 55.6595 106.381 56.5121 106.217 57.4977C105.926 58.1404 105.529 58.6443 105.076 59.1821C104.959 59.3299 104.841 59.4776 104.72 59.6298C104.355 60.0834 103.984 60.5299 103.609 60.9753C103.442 61.1774 103.442 61.1774 103.272 61.3836C102.532 62.2773 101.773 63.1525 101.001 64.0182C100.898 64.1337 100.795 64.2493 100.689 64.3683C98.3319 66.9979 95.89 69.6328 93.1076 71.8157C92.572 72.2398 92.0559 72.6809 91.5413 73.13C87.6288 76.5251 83.1094 79.4448 78.4144 81.6299C78.0979 81.7775 77.7824 81.9272 77.4675 82.0784C70.8352 85.2636 63.7336 86.9396 56.3761 86.9216C56.1857 86.9214 55.9953 86.9212 55.7991 86.921C47.8734 86.895 40.17 84.9083 33.1616 81.188C32.7497 80.97 32.3355 80.7569 31.9207 80.5445C28.0988 78.5706 24.5411 76.1099 21.2331 73.3643C21.1259 73.2756 21.0187 73.1868 20.9083 73.0954C17.2479 70.0576 13.5476 66.8342 10.6067 63.0783C10.1647 62.5177 9.70664 61.9767 9.24036 61.4364C8.73922 60.8536 8.2477 60.2631 7.75737 59.6712C7.59571 59.4779 7.43405 59.2845 7.26749 59.0854C7.05945 58.8172 7.05945 58.8172 6.84722 58.5437C6.72758 58.3927 6.60794 58.2416 6.48468 58.086C6.09415 57.1624 6.07249 56.3097 6.23592 55.3242C6.52708 54.6814 6.92435 54.1776 7.37701 53.6397C7.55329 53.4183 7.55329 53.4183 7.73312 53.1925C8.09765 52.7387 8.46958 52.2921 8.84413 51.8465C9.01292 51.6427 9.01292 51.6427 9.18512 51.4348C9.92472 50.5431 10.6828 49.6695 11.4523 48.8036C11.6389 48.5926 11.8255 48.3817 12.0178 48.1643C14.2986 45.632 16.6661 43.1015 19.3542 40.9977C19.8833 40.5804 20.3927 40.146 20.9005 39.7033C25.1125 36.0523 29.8815 33.1184 34.9263 30.7635C35.0586 30.7004 35.1909 30.6373 35.3272 30.5722C41.8408 27.4822 48.8808 25.8833 56.0772 25.9002ZM38.4039 34.2411C38.238 34.3138 38.0721 34.3865 37.9012 34.4614C33.3943 36.4589 29.2146 38.9902 25.3628 42.0657C25.1426 42.24 24.9224 42.4143 24.6955 42.5938C23.5408 43.5233 22.4277 44.4929 21.3325 45.4916C20.9811 45.8117 20.6273 46.1293 20.2712 46.4442C18.2174 48.2621 16.2613 50.1806 14.4953 52.2812C14.2953 52.516 14.0952 52.7506 13.895 52.9851C13.6784 53.2394 13.4619 53.4939 13.2455 53.7484C13.1428 53.8691 13.0401 53.9898 12.9343 54.1142C12.6557 54.4435 12.38 54.7751 12.1044 55.1068C11.9688 55.2559 11.8332 55.4049 11.6935 55.5585C11.4059 55.9722 11.4059 55.9722 11.4676 56.5052C11.7138 57.1847 12.0444 57.6118 12.5119 58.1633C12.7759 58.4751 12.7759 58.4751 13.0451 58.7933C13.834 59.6976 14.6457 60.5808 15.4623 61.4601C15.9071 61.943 16.3385 62.4316 16.7639 62.9314C18.328 64.7325 20.0636 66.3933 21.8852 67.9305C22.1806 68.1898 22.1806 68.1898 22.4821 68.4544C32.375 77.0843 45.2819 83.2002 58.643 82.434C69.0728 81.6507 78.9647 77.2445 87.0905 70.7561C87.3108 70.5818 87.531 70.4075 87.7579 70.228C88.9122 69.2987 90.025 68.3294 91.12 67.3311C91.4744 67.0083 91.8309 66.6878 92.1898 66.37C94.1669 64.6174 96.0318 62.7739 97.7407 60.7579C97.9571 60.5068 98.1736 60.2557 98.3902 60.0048C98.6266 59.7306 98.8629 59.4564 99.0992 59.1821C99.2122 59.0511 99.3253 58.92 99.4417 58.785C99.6539 58.5377 99.8648 58.2893 100.074 58.0398C100.299 57.7737 100.532 57.5141 100.767 57.2565C101.047 56.8478 101.047 56.8478 100.986 56.3167C100.74 55.6372 100.409 55.21 99.9414 54.6585C99.7655 54.4506 99.5895 54.2427 99.4082 54.0285C98.6193 53.1242 97.8077 52.241 96.9911 51.3617C96.5463 50.8788 96.1148 50.3902 95.6895 49.8904C94.1254 48.0894 92.3899 46.4282 90.5682 44.8913C90.3737 44.721 90.1793 44.5506 89.9789 44.3751C86.661 41.4846 83.0983 39.0073 79.2659 36.8493C79.0838 36.7459 78.9018 36.6425 78.7142 36.536C66.1952 29.492 51.6092 28.3973 38.4039 34.2411Z" fill="#FEFEFE"/>
<path d="M56.1452 36.7406C56.5426 36.7427 56.5426 36.7427 56.9481 36.7449C61.5128 36.8363 65.6254 38.3733 69.0504 41.4137C69.2689 41.586 69.2689 41.586 69.4919 41.7618C72.9317 44.5328 75.2037 49.0276 75.7883 53.368C76.2506 58.7274 75.4731 63.9358 72.0797 68.2565C71.7966 68.5844 71.5115 68.9106 71.2239 69.2346C71.109 69.3803 70.9941 69.526 70.8758 69.6761C68.1048 73.116 63.6099 75.3879 59.2696 75.9725C53.9102 76.4348 48.7017 75.6574 44.381 72.2639C44.0531 71.9808 43.7269 71.6957 43.4029 71.4081C43.2572 71.2933 43.1116 71.1784 42.9614 71.06C39.5393 68.3033 37.2181 63.7845 36.6651 59.4538C36.2873 53.8581 36.2873 53.8581 37.0998 51.8465C37.7905 51.22 38.2445 51.0027 39.1646 50.8549C39.935 50.9787 40.4086 51.1616 40.9808 51.7027C41.7146 52.7688 41.4554 54.49 41.4214 55.7266C41.3221 59.6296 42.1523 63.0242 44.7886 66.0423C45.1198 66.3857 45.4547 66.7255 45.7938 67.0611C45.9381 67.2127 46.0824 67.3643 46.2311 67.5204C48.8837 70.1226 52.7776 71.4081 56.444 71.4081C60.6437 71.1219 64.3724 69.6255 67.3379 66.589C70.3331 63.1092 71.2709 59.0861 71.0515 54.5893C70.7768 51.114 69.1002 48.1764 66.6595 45.7607C66.5152 45.6091 66.3709 45.4575 66.2223 45.3014C64.2023 43.3198 61.3865 42.0906 58.6175 41.631C58.4295 41.598 58.2415 41.5649 58.0478 41.5308C55.8496 41.2369 53.5445 41.5844 51.4314 42.2151C50.4845 42.4905 49.7986 42.6101 48.8367 42.2831C48.0805 41.6073 47.7829 41.2139 47.6413 40.2047C47.7624 39.3723 47.8417 38.9989 48.402 38.3708C50.6686 36.956 53.5442 36.7261 56.1452 36.7406Z" fill="#FEFEFE"/>
<path d="M61.0992 48.914C63.0126 50.2921 64.4505 52.1148 64.9207 54.4548C65.2115 57.1536 64.9806 59.5384 63.3585 61.7904C61.8778 63.5477 60.0727 64.9013 57.7327 65.1535C54.9265 65.3481 52.5859 65.0077 50.3726 63.1429C48.5212 61.3755 47.5321 59.4956 47.4303 56.9249C47.3966 54.2049 48.009 52.1133 49.9235 50.1077C52.9186 47.2485 57.5536 46.703 61.0992 48.914ZM52.5317 54.1423C51.8984 55.2819 51.8892 56.4494 52.097 57.715C52.5221 58.8986 53.3126 59.7472 54.4072 60.3555C55.5969 60.7828 56.8564 60.7828 58.0461 60.3555C59.1407 59.7472 59.9313 58.8986 60.3563 57.715C60.5642 56.4494 60.555 55.2819 59.9216 54.1423C59.1163 53.0678 58.2409 52.3979 56.9 52.1777C54.977 52.0855 53.6927 52.5932 52.5317 54.1423Z" fill="#FEFEFE"/>
<path d="M89.0467 84.0145C90.358 84.7607 91.3543 85.8247 92.4122 86.8876C92.6072 87.0821 92.8021 87.2766 93.0029 87.477C93.4134 87.8872 93.8234 88.2978 94.2327 88.7091C94.7564 89.2353 95.2821 89.7596 95.8084 90.2832C96.312 90.785 96.8141 91.2883 97.3162 91.7916C97.5048 91.9793 97.6934 92.167 97.8877 92.3604C98.0619 92.536 98.2361 92.7115 98.4155 92.8924C98.5689 93.0461 98.7223 93.1999 98.8804 93.3583C99.6073 94.1902 99.7933 94.8564 99.7682 95.9756C99.6555 96.652 99.3088 97.0231 98.8275 97.4903C98.1393 97.8344 97.3985 97.8475 96.654 97.7076C95.3427 96.9614 94.3464 95.8974 93.2884 94.8345C92.9961 94.5428 92.9961 94.5428 92.6978 94.2451C92.2873 93.8349 91.8773 93.4244 91.468 93.013C90.9443 92.4868 90.4186 91.9626 89.8923 91.4389C89.3886 90.9372 88.8866 90.4338 88.3845 89.9305C88.1959 89.7428 88.0073 89.5551 87.813 89.3617C87.6388 89.1862 87.4646 89.0106 87.2852 88.8298C87.1318 88.676 86.9784 88.5222 86.8203 88.3638C86.0934 87.5319 85.9074 86.8657 85.9325 85.7465C86.0452 85.0701 86.3919 84.699 86.8732 84.2318C87.5614 83.8877 88.3022 83.8746 89.0467 84.0145Z" fill="#FEFEFE"/>
<path d="M25.1454 84.0146C25.7562 84.4044 26.1256 84.6707 26.4495 85.3187C26.5609 86.6551 26.4141 87.2976 25.5801 88.3616C24.9337 89.0704 24.2562 89.7464 23.5764 90.423C23.2847 90.7154 23.2847 90.7154 22.987 91.0137C22.5769 91.4242 22.1663 91.8342 21.755 92.2434C21.2287 92.7672 20.7045 93.2929 20.1808 93.8191C19.6791 94.3228 19.1757 94.8248 18.6725 95.327C18.4847 95.5156 18.297 95.7042 18.1036 95.8985C17.9281 96.0727 17.7525 96.2468 17.5717 96.4263C17.4179 96.5797 17.2642 96.7331 17.1058 96.8912C16.2738 97.618 15.6076 97.8041 14.4884 97.779C13.8121 97.6663 13.4409 97.3196 12.9738 96.8383C12.6297 96.15 12.6165 95.4093 12.7564 94.6648C13.5026 93.3535 14.5666 92.3572 15.6295 91.2992C15.824 91.1043 16.0185 90.9094 16.2189 90.7086C16.6291 90.2981 17.0397 89.8881 17.451 89.4788C17.9772 88.9551 18.5015 88.4294 19.0252 87.9031C19.5269 87.3994 20.0303 86.8974 20.5335 86.3952C20.7212 86.2066 20.9089 86.0181 21.1023 85.8237C21.2779 85.6496 21.4534 85.4754 21.6343 85.296C21.8649 85.0658 21.8649 85.0658 22.1002 84.8311C23.0222 84.0255 23.9292 83.8118 25.1454 84.0146Z" fill="#FEFEFE"/>
<path d="M98.3928 17.2878C99.0035 17.6776 99.3729 17.9439 99.6969 18.5919C99.8083 19.9283 99.6614 20.5708 98.8275 21.6348C98.1811 22.3436 97.5036 23.0196 96.8238 23.6962C96.532 23.9886 96.532 23.9886 96.2344 24.2869C95.8242 24.6974 95.4136 25.1073 95.0023 25.5166C94.4761 26.0404 93.9518 26.5661 93.4282 27.0923C92.9264 27.596 92.423 28.098 91.9198 28.6002C91.7321 28.7888 91.5444 28.9774 91.351 29.1717C91.1754 29.3459 90.9999 29.52 90.819 29.6995C90.6653 29.8529 90.5115 30.0063 90.3531 30.1644C89.5212 30.8912 88.855 31.0773 87.7358 31.0522C87.0594 30.9395 86.6883 30.5928 86.2211 30.1115C85.877 29.4232 85.8639 28.6825 86.0038 27.938C86.75 26.6267 87.8139 25.6304 88.8769 24.5724C89.0714 24.3775 89.2659 24.1826 89.4663 23.9817C89.8765 23.5713 90.287 23.1613 90.6984 22.752C91.2246 22.2283 91.7488 21.7026 92.2725 21.1763C92.7742 20.6726 93.2776 20.1706 93.7809 19.6684C93.9686 19.4798 94.1563 19.2912 94.3497 19.0969C94.5252 18.9228 94.7008 18.7486 94.8816 18.5692C95.1123 18.339 95.1123 18.339 95.3476 18.1043C96.2696 17.2987 97.1765 17.085 98.3928 17.2878Z" fill="#FEFEFE"/>
<path d="M15.7994 17.2877C17.1107 18.0339 18.1069 19.0979 19.1649 20.1608C19.3598 20.3553 19.5547 20.5498 19.7556 20.7502C20.166 21.1604 20.576 21.571 20.9853 21.9823C21.5091 22.5085 22.0347 23.0328 22.561 23.5564C23.0647 24.0582 23.5667 24.5616 24.0689 25.0648C24.2575 25.2525 24.4461 25.4402 24.6404 25.6336C24.8145 25.8092 24.9887 25.9847 25.1682 26.1656C25.3216 26.3193 25.475 26.4731 25.633 26.6315C26.3599 27.4634 26.5459 28.1296 26.5209 29.2488C26.4081 29.9252 26.0615 30.2963 25.5802 30.7635C24.8919 31.1076 24.1512 31.1207 23.4066 30.9808C22.0953 30.2346 21.0991 29.1707 20.0411 28.1077C19.7487 27.816 19.7487 27.816 19.4504 27.5183C19.04 27.1081 18.63 26.6976 18.2207 26.2862C17.6969 25.76 17.1713 25.2358 16.645 24.7121C16.1413 24.2104 15.6393 23.707 15.1371 23.2037C14.9485 23.016 14.7599 22.8283 14.5656 22.6349C14.3915 22.4594 14.2173 22.2838 14.0378 22.103C13.8844 21.9492 13.731 21.7955 13.573 21.637C12.8461 20.8051 12.6601 20.1389 12.6851 19.0197C12.7978 18.3433 13.1445 17.9722 13.6258 17.5051C14.3141 17.1609 15.0548 17.1478 15.7994 17.2877Z" fill="#FEFEFE"/>
<path d="M56.2267 93.2248C56.406 93.222 56.5853 93.2192 56.7701 93.2163C57.5673 93.4281 57.8826 93.8125 58.4002 94.4474C58.5081 95.0343 58.5495 95.4847 58.5408 96.0699C58.5437 96.3092 58.5437 96.3092 58.5466 96.5533C58.5513 97.0786 58.5482 97.6035 58.5445 98.1288C58.5453 98.495 58.5463 98.8612 58.5477 99.2274C58.5493 99.994 58.5469 100.761 58.5419 101.527C58.5357 102.509 58.5392 103.49 58.5457 104.472C58.5497 105.228 58.5484 105.984 58.5456 106.74C58.5449 107.101 58.5458 107.463 58.5483 107.825C58.5511 108.332 58.5468 108.837 58.5408 109.344C58.543 109.492 58.5452 109.641 58.5475 109.795C58.5292 110.622 58.4118 110.952 57.882 111.602C57.2635 112.092 57.0037 112.201 56.2267 112.189C55.9577 112.193 55.9577 112.193 55.6833 112.197C54.886 111.985 54.5707 111.601 54.0532 110.966C53.9452 110.379 53.9039 109.929 53.9125 109.344C53.9106 109.184 53.9087 109.025 53.9068 108.86C53.902 108.335 53.9051 107.81 53.9088 107.285C53.9081 106.919 53.907 106.552 53.9057 106.186C53.9041 105.419 53.9064 104.653 53.9115 103.886C53.9177 102.905 53.9141 101.923 53.9076 100.942C53.9037 100.186 53.9049 99.4299 53.9077 98.6739C53.9085 98.312 53.9076 97.9501 53.905 97.5883C53.9023 97.082 53.9065 96.5762 53.9125 96.0699C53.9092 95.8466 53.9092 95.8466 53.9059 95.6188C53.9241 94.7917 54.0415 94.4617 54.5714 93.8116C55.1899 93.321 55.4496 93.2127 56.2267 93.2248Z" fill="#FEFEFE"/>
<path d="M56.2267 0.633216C56.406 0.630414 56.5853 0.627612 56.7701 0.624725C57.5673 0.836497 57.8826 1.22087 58.4002 1.85582C58.5081 2.44268 58.5495 2.89316 58.5408 3.47831C58.5437 3.7176 58.5437 3.7176 58.5466 3.96173C58.5513 4.48702 58.5482 5.01191 58.5445 5.5372C58.5453 5.9034 58.5463 6.26959 58.5477 6.63579C58.5493 7.40246 58.5469 8.16899 58.5419 8.93565C58.5357 9.91729 58.5392 10.8986 58.5457 11.8802C58.5497 12.6362 58.5484 13.3921 58.5456 14.148C58.5449 14.5099 58.5458 14.8718 58.5483 15.2336C58.5511 15.7399 58.5468 16.2457 58.5408 16.752C58.543 16.9009 58.5452 17.0497 58.5475 17.2031C58.5292 18.0302 58.4118 18.3602 57.882 19.0103C57.2635 19.5009 57.0037 19.6092 56.2267 19.5971C55.9577 19.6013 55.9577 19.6013 55.6833 19.6056C54.886 19.3938 54.5707 19.0094 54.0532 18.3745C53.9452 17.7876 53.9039 17.3372 53.9125 16.752C53.9106 16.5925 53.9087 16.433 53.9068 16.2686C53.902 15.7433 53.9051 15.2184 53.9088 14.6931C53.9081 14.3269 53.907 13.9607 53.9057 13.5945C53.9041 12.8279 53.9064 12.0613 53.9115 11.2947C53.9177 10.313 53.9141 9.33171 53.9076 8.35007C53.9037 7.59413 53.9049 6.83827 53.9077 6.08232C53.9085 5.72045 53.9076 5.35856 53.905 4.9967C53.9023 4.49038 53.9065 3.98458 53.9125 3.47831C53.9092 3.25504 53.9092 3.25504 53.9059 3.02726C53.9241 2.2001 54.0415 1.87011 54.5714 1.22005C55.1899 0.729439 55.4496 0.621074 56.2267 0.633216Z" fill="#FEFEFE"/>
<path d="M44.2724 43.3699C44.9516 43.7774 44.9516 43.7774 45.3591 44.4566C45.574 45.5491 45.528 46.3487 44.9516 47.3093C43.9909 47.8857 43.1913 47.9318 42.0989 47.7169C41.4196 47.3093 41.4196 47.3093 41.0121 46.6301C40.7972 45.5377 40.8432 44.738 41.4196 43.7774C42.3803 43.201 43.1799 43.1549 44.2724 43.3699Z" fill="#FEFEFE"/>
</g>
<defs>
<clipPath id="clip0_4824_4997">
<rect width="111.284" height="111.284" fill="white" transform="translate(0.584778 0.769043)"/>
</clipPath>
</defs>
</svg>
