<svg width="24" height="25" viewBox="0 0 24 25" fill="none" xmlns="http://www.w3.org/2000/svg">
<g clip-path="url(#clip0_4170_3951)">
<path d="M15.0561 2.78277C15.0995 2.81836 15.1428 2.85395 15.1874 2.89062C15.2274 2.92283 15.2673 2.95503 15.3085 2.98822C16.2536 3.79045 16.8276 4.94846 16.9687 6.17187C17.0675 7.45069 16.7576 8.69197 16.1718 9.82812C16.2221 9.80051 16.2725 9.77289 16.3243 9.74444C16.3916 9.70881 16.4589 9.67323 16.5263 9.63769C16.5593 9.61941 16.5923 9.60113 16.6264 9.5823C16.8547 9.46337 16.9943 9.42068 17.2499 9.5C17.4469 9.59415 17.6351 9.70147 17.8241 9.81054C17.8803 9.84243 17.9365 9.87426 17.9927 9.90603C18.1093 9.97202 18.2258 10.0383 18.3422 10.1047C18.6097 10.2569 18.8791 10.4056 19.1484 10.5547C19.2535 10.6131 19.3586 10.6715 19.4637 10.7299C19.7324 10.8792 20.0014 11.0282 20.2703 11.1772C20.4286 11.265 20.5867 11.3532 20.7447 11.4415C20.9422 11.5518 21.1407 11.6601 21.3401 11.767C21.4299 11.816 21.5196 11.865 21.6093 11.9141C21.6502 11.9354 21.6911 11.9568 21.7332 11.9788C21.7706 11.9995 21.8081 12.0202 21.8466 12.0415C21.879 12.0589 21.9115 12.0762 21.9449 12.0941C22.1547 12.2832 22.201 12.5964 22.2476 12.8634C22.2541 12.8985 22.2606 12.9337 22.2672 12.9699C22.2886 13.0869 22.3095 13.204 22.3303 13.3211C22.3456 13.4054 22.361 13.4896 22.3764 13.5739C22.418 13.8026 22.4591 14.0313 22.5002 14.2601C22.5434 14.5008 22.5872 14.7415 22.6308 14.9821C22.7137 15.4392 22.7962 15.8963 22.8785 16.3535C22.9713 16.8686 23.0645 17.3836 23.1578 17.8986C23.2719 18.5286 23.3859 19.1587 23.4996 19.7889C23.5076 19.8334 23.5157 19.878 23.524 19.9238C23.5628 20.139 23.6015 20.3541 23.6401 20.5693C23.6546 20.6503 23.6692 20.7312 23.6837 20.8121C23.6907 20.8509 23.6976 20.8898 23.7048 20.9298C23.7433 21.1438 23.7825 21.3576 23.8225 21.5713C23.8398 21.6642 23.857 21.757 23.8742 21.8499C23.8942 21.958 23.9145 22.066 23.9353 22.1739C24.0713 22.9135 24.0713 22.9135 23.9325 23.1728C23.749 23.2669 23.5886 23.2277 23.3905 23.1875C23.2439 23.1386 23.1061 23.0756 22.9665 23.0095C22.9271 22.9915 22.8876 22.9734 22.847 22.9548C22.7194 22.8962 22.5921 22.8368 22.4648 22.7773C22.3759 22.7364 22.2869 22.6955 22.1979 22.6546C22.0207 22.5732 21.8436 22.4916 21.6666 22.4097C21.3469 22.2621 21.0256 22.118 20.704 21.9746C20.5969 21.9267 20.4898 21.8788 20.3827 21.8309C20.3305 21.8075 20.2783 21.7842 20.2246 21.7602C20.0226 21.6697 19.8208 21.5788 19.6192 21.4876C19.4732 21.4217 19.3269 21.3564 19.1799 21.2927C18.9329 21.1849 18.6943 21.0774 18.4643 20.9368C18.2032 20.7843 17.9811 20.6662 17.6739 20.7334C17.3374 20.8483 17.0259 21.0124 16.7128 21.1792C16.4492 21.3164 16.1773 21.4336 15.9052 21.5527C15.7919 21.6034 15.6787 21.6542 15.5655 21.7051C15.5051 21.7322 15.4446 21.7594 15.3841 21.7866C15.1243 21.9033 14.8646 22.0204 14.6049 22.1375C14.2842 22.282 13.9634 22.4262 13.6425 22.5703C13.4377 22.6622 13.2331 22.7547 13.0288 22.8478C12.895 22.9087 12.7609 22.9689 12.6269 23.0293C12.5574 23.0613 12.5574 23.0613 12.4866 23.094C12.4443 23.1129 12.402 23.1318 12.3584 23.1512C12.3228 23.1675 12.2871 23.1837 12.2503 23.2004C11.9553 23.2917 11.746 23.2007 11.481 23.0762C11.4444 23.0595 11.4078 23.0428 11.3701 23.0256C11.2497 22.9707 11.1297 22.915 11.0097 22.8594C10.925 22.8206 10.8403 22.7819 10.7555 22.7432C10.6253 22.6838 10.4952 22.6243 10.3651 22.5647C9.99396 22.3945 9.62113 22.2282 9.24762 22.0633C8.75073 21.8438 8.25487 21.6221 7.7603 21.3975C7.71512 21.3769 7.66995 21.3564 7.6234 21.3353C7.40173 21.2346 7.18014 21.1338 6.95868 21.0326C6.87836 20.9961 6.79803 20.9596 6.71769 20.923C6.68096 20.9062 6.64422 20.8893 6.60637 20.872C6.57235 20.8565 6.53833 20.8411 6.50328 20.8252C6.47381 20.8117 6.44434 20.7983 6.41398 20.7844C6.22533 20.7089 6.16577 20.6938 5.96531 20.7677C5.89358 20.8002 5.82213 20.8334 5.7509 20.867C5.71207 20.8848 5.67325 20.9026 5.63325 20.9209C5.50524 20.9797 5.37759 21.0392 5.24992 21.0986C5.16042 21.1398 5.07089 21.181 4.98133 21.222C4.84427 21.2849 4.70724 21.3478 4.57029 21.4109C4.1224 21.6171 3.67193 21.8173 3.22083 22.0164C2.84849 22.1808 2.47689 22.3465 2.10709 22.5166C1.93577 22.5954 1.76427 22.6738 1.59277 22.7521C1.51034 22.79 1.428 22.828 1.34578 22.8663C1.2312 22.9197 1.1163 22.9723 1.00132 23.0247C0.967849 23.0405 0.934375 23.0564 0.899887 23.0727C0.66913 23.1768 0.442702 23.2386 0.187419 23.2344C0.067302 23.1728 0.067302 23.1728 -8.08481e-05 23.0469C-0.0445303 22.6623 0.0424017 22.279 0.11222 21.9026C0.124349 21.8355 0.136443 21.7684 0.148504 21.7013C0.181291 21.5195 0.214585 21.3378 0.247971 21.1561C0.283435 20.9626 0.318427 20.769 0.353476 20.5754C0.420429 20.206 0.487804 19.8367 0.55533 19.4674C0.630102 19.0584 0.704399 18.6492 0.778655 18.2401C0.872752 17.7217 0.966964 17.2033 1.06175 16.685C1.06886 16.6461 1.07597 16.6073 1.08329 16.5672C1.11169 16.4119 1.14009 16.2567 1.1685 16.1014C1.25595 15.6234 1.34271 15.1452 1.42852 14.6669C1.47025 14.4342 1.51223 14.2016 1.55427 13.969C1.58189 13.8162 1.60932 13.6632 1.6365 13.5103C1.66589 13.3449 1.69575 13.1797 1.72572 13.0144C1.73409 12.9666 1.74245 12.9188 1.75107 12.8695C1.8629 12.2601 1.8629 12.2601 2.07212 12.0855C2.11243 12.0642 2.15273 12.0429 2.19426 12.021C2.24014 11.9961 2.28603 11.9711 2.3333 11.9455C2.38313 11.9196 2.43296 11.8938 2.48429 11.8672C2.59136 11.8095 2.69841 11.7518 2.80546 11.6941C2.86143 11.6644 2.91742 11.6347 2.97341 11.605C3.24028 11.4629 3.5036 11.3145 3.7675 11.167C3.87368 11.108 3.97988 11.049 4.0861 10.9901C4.13888 10.9608 4.19166 10.9315 4.24604 10.9013C4.40617 10.8125 4.40617 10.8125 4.56629 10.7236C4.67287 10.6645 4.77943 10.6053 4.88599 10.5462C4.99115 10.4878 5.09635 10.4295 5.20159 10.3713C5.44189 10.2382 5.68163 10.1043 5.91951 9.9669C6.00071 9.92001 6.08206 9.87338 6.16341 9.82676C6.26479 9.76857 6.36589 9.7099 6.46668 9.65068C6.51211 9.6247 6.55754 9.59872 6.60435 9.57196C6.64392 9.54894 6.68348 9.52592 6.72425 9.5022C6.90204 9.42913 7.04928 9.42525 7.23 9.49185C7.27787 9.51836 7.27787 9.51836 7.3267 9.54541C7.36175 9.56444 7.39679 9.58347 7.4329 9.60308C7.46855 9.62321 7.5042 9.64333 7.54094 9.66406C7.57767 9.68418 7.61441 9.7043 7.65226 9.72503C7.74241 9.7745 7.83222 9.82449 7.92179 9.875C7.8946 9.82104 7.86741 9.76708 7.8394 9.71148C7.13357 8.28468 6.7846 6.66859 7.30519 5.11615C7.48124 4.63221 7.70233 4.19211 8.01554 3.78125C8.06467 3.71581 8.06467 3.71581 8.11479 3.64904C8.94175 2.59253 10.0549 2.01392 11.3596 1.78503C12.6734 1.6364 14.0092 1.95773 15.0561 2.78277ZM10.7431 5.44824C10.7092 5.48594 10.6754 5.52365 10.6405 5.5625C10.6086 5.59633 10.5767 5.63017 10.5439 5.66504C10.2903 6.03314 10.1712 6.47742 10.2187 6.92187C10.367 7.56348 10.6485 7.96776 11.203 8.32812C11.6322 8.56461 12.1591 8.55877 12.619 8.42572C13.0915 8.24268 13.4524 7.88136 13.6874 7.4375C13.8684 6.97027 13.8739 6.48808 13.7021 6.0166C13.4861 5.54153 13.1457 5.21626 12.665 5.00586C11.9464 4.77454 11.2886 4.95125 10.7431 5.44824Z" fill="#FDBB24"/>
<path d="M15.0561 2.78277C15.0995 2.81836 15.1428 2.85395 15.1874 2.89062C15.2274 2.92283 15.2673 2.95503 15.3085 2.98822C16.2536 3.79045 16.8276 4.94846 16.9687 6.17187C17.1243 8.18411 16.2357 9.95146 15.0468 11.5156C15.0197 11.5519 15.0197 11.5519 14.992 11.5889C14.4918 12.256 13.9101 12.843 13.3241 13.4346C13.2843 13.4751 13.2444 13.5155 13.2033 13.5573C12.8688 13.8922 12.5155 14.2455 12.0937 14.4687C11.3185 14.4252 10.2036 12.9462 9.72315 12.4192C9.60104 12.2788 9.48819 12.1319 9.37493 11.9844C9.33128 11.9312 9.28744 11.8782 9.24346 11.8253C8.89142 11.3994 8.58752 10.9538 8.2968 10.4844C8.25921 10.4248 8.22161 10.3652 8.18401 10.3057C7.30288 8.89301 6.82064 7.24083 7.17287 5.57871C7.32933 4.92494 7.60781 4.31612 8.01555 3.78125C8.0483 3.73762 8.08106 3.69399 8.1148 3.64904C8.94176 2.59253 10.0549 2.01392 11.3596 1.78503C12.6734 1.6364 14.0092 1.95773 15.0561 2.78277ZM10.7431 5.44824C10.7093 5.48594 10.6754 5.52365 10.6406 5.5625C10.6087 5.59633 10.5767 5.63017 10.5439 5.66504C10.2903 6.03314 10.1712 6.47742 10.2187 6.92187C10.367 7.56348 10.6485 7.96776 11.2031 8.32812C11.6322 8.56461 12.1591 8.55877 12.619 8.42572C13.0915 8.24268 13.4524 7.88136 13.6874 7.4375C13.8684 6.97027 13.8739 6.48808 13.7021 6.0166C13.4861 5.54153 13.1457 5.21626 12.665 5.00586C11.9464 4.77454 11.2886 4.95125 10.7431 5.44824Z" fill="#FE4A49"/>
<path d="M15.4688 13.8125C15.5523 13.8648 15.5523 13.8648 15.6293 13.9306C15.6732 13.9673 15.6732 13.9673 15.7179 14.0047C15.7488 14.0312 15.7797 14.0577 15.8115 14.085C15.8783 14.1408 15.9452 14.1965 16.0122 14.2521C16.0463 14.2805 16.0805 14.3088 16.1157 14.338C16.2762 14.4686 16.442 14.5918 16.6084 14.7148C16.7008 14.7838 16.793 14.8528 16.8853 14.9219C16.9603 14.9781 17.0355 15.0342 17.1107 15.0902C17.4743 15.3729 17.7574 15.7073 18.0469 16.0625C18.0819 16.105 18.117 16.1475 18.1531 16.1912C18.2199 16.2726 18.2866 16.3541 18.353 16.4359C18.7181 16.8847 19.0861 17.3312 19.461 17.7719C19.6279 17.9685 19.7912 18.1679 19.9539 18.368C20.0755 18.5158 20.1992 18.6618 20.3232 18.8076C20.5046 19.0209 20.6812 19.2373 20.8552 19.4567C20.9706 19.5997 21.089 19.7399 21.208 19.8799C21.3989 20.1044 21.5871 20.3308 21.7733 20.5592C22.1393 21.0081 22.5074 21.4552 22.8825 21.8966C23.0519 22.0962 23.2188 22.2976 23.3835 22.501C23.4533 22.5868 23.5241 22.6719 23.5955 22.7563C23.6304 22.798 23.6652 22.8398 23.7012 22.8828C23.7327 22.92 23.7643 22.9573 23.7968 22.9956C23.8174 23.028 23.8381 23.0604 23.8594 23.0937C23.8439 23.1402 23.8284 23.1866 23.8125 23.2344C23.4935 23.2131 23.2542 23.1456 22.9666 23.0095C22.9271 22.9915 22.8877 22.9734 22.8471 22.9548C22.7194 22.8962 22.5921 22.8368 22.4648 22.7773C22.3759 22.7364 22.287 22.6955 22.198 22.6546C22.0208 22.5732 21.8437 22.4916 21.6667 22.4097C21.347 22.2621 21.0257 22.118 20.7041 21.9746C20.597 21.9267 20.4899 21.8788 20.3828 21.8309C20.3306 21.8075 20.2784 21.7842 20.2247 21.7602C20.0227 21.6697 19.8209 21.5788 19.6193 21.4876C19.4732 21.4217 19.327 21.3564 19.18 21.2927C18.933 21.1849 18.6944 21.0774 18.4644 20.9368C18.2033 20.7843 17.9812 20.6662 17.674 20.7334C17.369 20.8376 17.0852 20.9811 16.8013 21.1325C16.5166 21.2842 16.2236 21.4142 15.9282 21.5436C15.7855 21.6063 15.6432 21.6701 15.501 21.7338C15.4477 21.7577 15.3945 21.7815 15.3397 21.8061C15.1995 21.8696 15.0601 21.9344 14.9209 22.0001C14.8621 22.0274 14.8621 22.0274 14.8021 22.0553C14.7314 22.0882 14.6611 22.1217 14.591 22.1559C14.3734 22.2565 14.3734 22.2565 14.2429 22.2278C14.1242 22.1297 14.0231 22.0197 13.9219 21.9043C13.6235 21.572 13.308 21.2582 12.99 20.9448C12.7876 20.7445 12.5934 20.5417 12.4088 20.3248C12.3239 20.2297 12.2336 20.1435 12.141 20.056C11.9244 19.8419 11.7749 19.5981 11.6191 19.3379C11.5576 19.2373 11.496 19.1367 11.4344 19.0361C11.4036 18.9856 11.3729 18.9351 11.3412 18.8831C11.2031 18.6579 11.0612 18.4354 10.9189 18.2129C10.8647 18.1278 10.8104 18.0427 10.7562 17.9576C10.7294 17.9157 10.7026 17.8737 10.675 17.8305C10.5384 17.6163 10.402 17.4019 10.2656 17.1875C10.0995 16.9263 9.93326 16.6652 9.76685 16.4042C9.51224 16.0047 9.25787 15.6052 9.00586 15.2041C8.98602 15.1727 8.96619 15.1413 8.94576 15.1089C8.8125 14.8961 8.8125 14.8961 8.8125 14.8437C9.44818 14.869 10.0706 14.9384 10.7002 15.0274C11.4487 15.1324 12.0529 15.2151 12.7529 14.8672C12.81 14.8401 12.8672 14.8132 12.9244 14.7864C13.0163 14.7434 13.1081 14.7004 13.1997 14.6569C13.5702 14.481 13.945 14.3149 14.3208 14.1508C14.4361 14.1002 14.5511 14.0488 14.666 13.9973C14.7373 13.9661 14.8086 13.9349 14.8799 13.9037C14.9123 13.889 14.9447 13.8743 14.9781 13.8591C15.1598 13.7809 15.2802 13.7417 15.4688 13.8125Z" fill="#4CE065"/>
<path d="M17.3747 9.55864C17.5261 9.64001 17.6753 9.72463 17.8241 9.81055C17.8803 9.84243 17.9365 9.87426 17.9927 9.90604C18.1093 9.97203 18.2258 10.0383 18.3422 10.1047C18.6097 10.2569 18.8791 10.4056 19.1484 10.5547C19.2535 10.6131 19.3586 10.6715 19.4637 10.7299C19.7324 10.8792 20.0014 11.0282 20.2703 11.1772C20.4286 11.265 20.5867 11.3532 20.7447 11.4415C20.9422 11.5518 21.1407 11.6601 21.3401 11.767C21.4299 11.816 21.5196 11.865 21.6093 11.9141C21.6502 11.9354 21.6911 11.9568 21.7332 11.9788C21.7894 12.0098 21.7894 12.0098 21.8466 12.0415C21.8953 12.0676 21.8953 12.0676 21.9449 12.0941C22.1547 12.2832 22.201 12.5964 22.2476 12.8634C22.2541 12.8986 22.2606 12.9337 22.2672 12.9699C22.2886 13.0869 22.3095 13.204 22.3303 13.3211C22.3457 13.4054 22.361 13.4896 22.3764 13.5739C22.418 13.8026 22.4591 14.0313 22.5002 14.2601C22.5434 14.5008 22.5872 14.7415 22.6308 14.9821C22.7137 15.4392 22.7962 15.8963 22.8785 16.3535C22.9713 16.8686 23.0645 17.3836 23.1578 17.8986C23.2719 18.5286 23.3859 19.1587 23.4996 19.7889C23.5076 19.8334 23.5157 19.878 23.524 19.9238C23.5628 20.139 23.6015 20.3541 23.6401 20.5693C23.6546 20.6503 23.6692 20.7312 23.6837 20.8121C23.6907 20.851 23.6976 20.8898 23.7048 20.9298C23.7433 21.1438 23.7825 21.3576 23.8225 21.5713C23.8398 21.6642 23.857 21.757 23.8742 21.8499C23.8942 21.958 23.9145 22.066 23.9353 22.1739C24.048 22.787 24.048 22.787 23.9999 23.0469C23.9535 23.0778 23.9071 23.1087 23.8593 23.1406C23.5626 22.7967 23.2681 22.4518 22.9819 22.0991C22.8609 21.9517 22.7378 21.8063 22.6142 21.6611C22.4328 21.4478 22.2562 21.2315 22.0823 21.012C21.9669 20.869 21.8484 20.7288 21.7294 20.5889C21.5385 20.3644 21.3503 20.138 21.1642 19.9095C20.798 19.4605 20.4299 19.0132 20.0546 18.5718C19.8876 18.3752 19.7244 18.1758 19.5616 17.9758C19.44 17.8279 19.3164 17.6819 19.1923 17.5361C19.0109 17.3228 18.8343 17.1065 18.6604 16.887C18.5236 16.7175 18.3824 16.5518 18.2412 16.3859C18.0669 16.1808 17.896 15.9732 17.7265 15.764C17.693 15.7233 17.6595 15.6826 17.6249 15.6406C17.6043 15.6147 17.5837 15.5888 17.5624 15.5621C17.3934 15.3555 17.2117 15.2005 16.995 15.0459C16.9285 14.9972 16.862 14.9485 16.7956 14.8996C16.7621 14.875 16.7285 14.8503 16.694 14.8249C16.5346 14.7059 16.3795 14.5818 16.2245 14.457C16.1954 14.4338 16.1664 14.4106 16.1364 14.3866C16.0062 14.2823 15.8782 14.1768 15.7523 14.0672C15.7119 14.0325 15.6715 13.9977 15.6298 13.9619C15.5959 13.9316 15.562 13.9014 15.5271 13.8702C15.3784 13.7887 15.305 13.8208 15.1405 13.8594C15.0091 13.9071 14.882 13.9631 14.7544 14.0201C14.6988 14.0445 14.6988 14.0445 14.6421 14.0694C14.522 14.1221 14.4021 14.1753 14.2821 14.2285C14.1997 14.2648 14.1172 14.301 14.0346 14.3373C13.697 14.4856 13.3599 14.6349 13.0231 14.785C12.9395 14.8223 12.8559 14.8594 12.7722 14.8966C12.6737 14.9404 12.5752 14.9846 12.4769 15.0289C12.4123 15.0577 12.4123 15.0577 12.3464 15.0871C12.3096 15.1036 12.2729 15.1202 12.2351 15.1372C12.1405 15.1719 12.1405 15.1719 11.9999 15.1719C11.9871 15.0602 11.978 14.95 11.9706 14.8379C11.9667 14.8067 11.9628 14.7755 11.9587 14.7434C11.9541 14.65 11.9541 14.65 11.9999 14.4687C12.1082 14.3829 12.2203 14.3221 12.3425 14.2577C12.5349 14.1507 12.6813 14.0066 12.8378 13.8535C12.8709 13.8217 12.9041 13.7899 12.9382 13.7571C13.048 13.6512 13.1569 13.5445 13.2655 13.4375C13.3059 13.3978 13.3463 13.3581 13.388 13.3172C13.5135 13.1936 13.6386 13.0696 13.7636 12.9453C13.8024 12.9067 13.8413 12.8681 13.8813 12.8283C14.4339 12.2741 14.9141 11.6705 15.3573 11.0264C15.3834 10.9887 15.4094 10.9509 15.4362 10.9121C15.5545 10.7381 15.6664 10.5648 15.7638 10.3782C16.0588 9.81683 16.7026 9.2428 17.3747 9.55864Z" fill="#FDDA55"/>
<path d="M6.5624 14.6562C6.74286 14.8241 6.87293 14.9979 6.99892 15.21C7.18916 15.5215 7.38728 15.8268 7.59072 16.1299C7.93508 16.6438 8.27606 17.1599 8.61611 17.6768C8.64305 17.7177 8.67 17.7586 8.69776 17.8008C8.83674 18.012 8.97569 18.2232 9.11464 18.4344C9.35485 18.7996 9.59527 19.1646 9.83567 19.5296C9.96584 19.7272 10.096 19.9249 10.2262 20.1225C10.252 20.1618 10.2779 20.2011 10.3046 20.2416C10.4736 20.4983 10.6427 20.7551 10.8117 21.0118C10.9286 21.1894 11.0456 21.367 11.1625 21.5445C11.2183 21.6293 11.274 21.714 11.3298 21.7987C11.4071 21.9161 11.4844 22.0335 11.5617 22.1509C11.5844 22.1854 11.6071 22.2199 11.6305 22.2554C11.6518 22.2878 11.6731 22.3201 11.695 22.3534C11.7149 22.3837 11.7348 22.414 11.7553 22.4452C11.7926 22.5015 11.8305 22.5575 11.8689 22.613C11.9734 22.7647 12.0229 22.8545 12.0116 23.041C12.0099 23.0776 12.0082 23.1143 12.0065 23.152C12.0043 23.1792 12.0021 23.2064 11.9999 23.2344C11.7982 23.2036 11.6238 23.1321 11.4394 23.0485C11.4074 23.0342 11.3754 23.02 11.3424 23.0052C11.2363 22.9578 11.1303 22.9101 11.0243 22.8623C10.9492 22.8287 10.8741 22.795 10.799 22.7614C10.5993 22.6721 10.3998 22.5823 10.2003 22.4925C10.0792 22.438 9.95812 22.3836 9.83701 22.3292C9.44087 22.1512 9.04483 21.973 8.64888 21.7946C8.27676 21.6269 7.90462 21.4593 7.53227 21.2921C7.45124 21.2557 7.37024 21.2193 7.28925 21.1828C7.19035 21.1384 7.09099 21.0951 6.99118 21.0528C6.84365 20.9844 6.84365 20.9844 6.69501 20.8904C6.48609 20.7698 6.31843 20.6764 6.07751 20.7255C5.81645 20.8121 5.57313 20.9352 5.32908 21.061C5.13457 21.1598 4.93502 21.2465 4.73555 21.3347C4.6577 21.3699 4.5799 21.4052 4.50215 21.4407C4.25019 21.5555 3.99806 21.6699 3.74587 21.7842C3.70296 21.8036 3.66004 21.8231 3.61583 21.8431C3.02067 22.1127 2.42371 22.3781 1.826 22.642C1.621 22.7325 1.41652 22.8242 1.21224 22.9163C1.11477 22.9599 1.0173 23.0034 0.919819 23.0469C0.877208 23.0664 0.834597 23.0859 0.790695 23.1059C0.58317 23.1978 0.419293 23.265 0.187397 23.2344C0.0760688 23.1699 0.0760688 23.1699 -0.000103121 23.0469C-0.0316856 22.7256 0.0145721 22.402 0.0600814 22.0843C0.0665846 22.0373 0.0730878 21.9904 0.0797881 21.942C0.140501 21.5108 0.20808 21.0807 0.277834 20.6509C0.324438 20.3631 0.368682 20.0753 0.407455 19.7864C0.678001 17.7874 0.678001 17.7874 1.12226 17.4158C1.4184 17.2072 1.74208 17.0955 2.0899 17.0016C2.33377 16.9277 2.54193 16.8046 2.75966 16.6748C3.17126 16.4464 3.58891 16.2304 4.00771 16.0156C4.52058 15.7525 5.02911 15.4831 5.53408 15.205C5.87449 15.0177 6.2184 14.8369 6.5624 14.6562Z" fill="#A7EDFA"/>
<path d="M7.22562 9.4859C7.99804 9.87793 7.99804 9.87793 8.20312 10.25C8.2773 10.3717 8.35315 10.4924 8.42871 10.6133C8.45918 10.6625 8.45918 10.6625 8.49026 10.7128C8.67476 11.0097 8.87682 11.2883 9.09375 11.5625C9.11666 11.5915 9.13957 11.6205 9.16317 11.6504C9.46484 12.0309 9.77538 12.3993 10.1067 12.7543C10.2423 12.9004 10.3717 13.0506 10.5 13.2031C9.78355 13.1737 9.08071 13.0751 8.37598 12.9453C8.0414 12.884 7.70548 12.8366 7.36816 12.793C7.29467 12.7831 7.29467 12.7831 7.2197 12.7731C7.15062 12.7644 7.15062 12.7644 7.08014 12.7556C7.03906 12.7504 6.99798 12.7451 6.95566 12.7397C6.70715 12.7278 6.51005 12.8494 6.2948 12.9609C6.25938 12.979 6.22397 12.9972 6.18748 13.0159C6.07214 13.0752 5.95696 13.1347 5.8418 13.1943C5.76185 13.2355 5.6819 13.2767 5.60195 13.3179C5.15972 13.5462 4.72034 13.7788 4.285 14.02C3.81109 14.2811 3.32852 14.5255 2.84692 14.772C2.77728 14.8076 2.70764 14.8433 2.638 14.8789C2.5874 14.9048 2.5874 14.9048 2.53578 14.9312C2.2213 15.0924 1.90843 15.2566 1.59674 15.4231C1.36412 15.5469 1.36412 15.5469 1.3125 15.5469C1.34191 15.1871 1.39737 14.835 1.46155 14.4799C1.47155 14.4241 1.48156 14.3684 1.49186 14.3109C1.51296 14.1937 1.53416 14.0765 1.55546 13.9593C1.58787 13.7804 1.61966 13.6014 1.65143 13.4224C1.67208 13.3081 1.69277 13.1938 1.7135 13.0795C1.72288 13.0263 1.73226 12.9731 1.74193 12.9182C1.86315 12.26 1.86315 12.26 2.0722 12.0855C2.11251 12.0642 2.15281 12.0429 2.19434 12.021C2.24022 11.9961 2.28611 11.9712 2.33338 11.9455C2.38321 11.9196 2.43304 11.8938 2.48438 11.8672C2.59144 11.8095 2.69849 11.7518 2.80554 11.6942C2.86151 11.6644 2.9175 11.6347 2.9735 11.605C3.24037 11.4629 3.50369 11.3145 3.76758 11.167C3.87376 11.108 3.97996 11.049 4.08618 10.9901C4.13896 10.9608 4.19174 10.9315 4.24612 10.9014C4.40625 10.8125 4.40625 10.8125 4.56638 10.7236C4.67295 10.6645 4.77951 10.6053 4.88607 10.5462C4.99123 10.4878 5.09643 10.4295 5.20167 10.3713C5.44197 10.2382 5.68171 10.1043 5.91959 9.9669C6.00079 9.92002 6.08214 9.87339 6.16349 9.82676C6.26487 9.76857 6.36598 9.7099 6.46676 9.65068C6.51219 9.62471 6.55762 9.59873 6.60443 9.57196C6.644 9.54894 6.68357 9.52592 6.72433 9.50221C6.89874 9.43052 7.04626 9.42748 7.22562 9.4859Z" fill="#4CE065"/>
<path d="M21.7969 12.0312C21.8462 12.0535 21.8955 12.0757 21.9463 12.0986C22.2747 12.3978 22.2786 13.0269 22.3552 13.4519C22.3681 13.5227 22.3811 13.5935 22.3941 13.6643C22.4289 13.855 22.4635 14.0458 22.498 14.2366C22.5343 14.4368 22.5708 14.637 22.6073 14.8372C22.6684 15.173 22.7293 15.5088 22.7901 15.8446C22.8604 16.2326 22.931 16.6206 23.0017 17.0085C23.0699 17.3825 23.1379 17.7565 23.2057 18.1305C23.2346 18.2894 23.2635 18.4483 23.2925 18.6072C23.3266 18.7941 23.3604 18.981 23.3942 19.168C23.4066 19.2365 23.419 19.305 23.4316 19.3736C23.4487 19.4671 23.4655 19.5607 23.4824 19.6544C23.4919 19.7067 23.5014 19.7591 23.5111 19.813C23.5294 19.9404 23.5352 20.0591 23.5312 20.1875C23.1681 19.8282 22.8338 19.4482 22.5132 19.0508C22.4031 18.9181 22.2886 18.7909 22.1719 18.6641C21.979 18.4545 21.7982 18.2379 21.6194 18.0164C21.5177 17.8931 21.4124 17.7744 21.3047 17.6562C21.1596 17.4971 21.021 17.3346 20.8857 17.167C20.7048 16.9432 20.5137 16.7312 20.3188 16.5195C20.169 16.3526 20.029 16.1785 19.8882 16.0039C19.7781 15.8712 19.6636 15.744 19.5469 15.6172C19.355 15.4087 19.1754 15.1931 18.9976 14.9727C18.8875 14.84 18.773 14.7128 18.6562 14.5859C18.4636 14.3766 18.2829 14.1603 18.1044 13.9388C17.9997 13.8122 17.8911 13.6906 17.7803 13.5693C17.2969 13.0376 17.2969 13.0376 17.2969 12.875C17.65 12.7943 18.0033 12.7147 18.3567 12.6355C18.5998 12.5809 18.8428 12.5257 19.0857 12.47C19.3644 12.4061 19.6432 12.3428 19.9222 12.28C20.0799 12.2444 20.2375 12.2086 20.3951 12.1722C20.5746 12.1307 20.7544 12.0904 20.9343 12.0501C20.9887 12.0373 21.0431 12.0246 21.0992 12.0114C21.5599 11.91 21.5599 11.91 21.7969 12.0312Z" fill="#1FA4E7"/>
<path d="M6.60938 14.7031C6.77304 14.852 6.88332 15.0189 6.99609 15.207C7.18758 15.5194 7.38671 15.8257 7.59082 16.1299C7.93518 16.6438 8.27617 17.1599 8.61621 17.6768C8.64316 17.7177 8.6701 17.7586 8.69786 17.8008C8.83684 18.012 8.9758 18.2232 9.11474 18.4344C9.35496 18.7996 9.59537 19.1646 9.83578 19.5296C9.96594 19.7272 10.0961 19.9249 10.2263 20.1225C10.2521 20.1618 10.278 20.2011 10.3047 20.2416C10.4738 20.4983 10.6428 20.7551 10.8118 21.0118C10.9287 21.1894 11.0457 21.367 11.1626 21.5445C11.2184 21.6293 11.2742 21.714 11.3299 21.7987C11.4072 21.9161 11.4845 22.0335 11.5618 22.1509C11.5845 22.1854 11.6072 22.2199 11.6306 22.2554C11.6519 22.2878 11.6732 22.3201 11.6951 22.3534C11.715 22.3837 11.7349 22.414 11.7554 22.4452C11.7927 22.5015 11.8306 22.5575 11.869 22.613C11.9735 22.7647 12.023 22.8545 12.0117 23.041C12.01 23.0776 12.0083 23.1143 12.0066 23.152C12.0044 23.1792 12.0022 23.2064 12 23.2344C11.7983 23.2036 11.6239 23.1321 11.4395 23.0485C11.4075 23.0342 11.3755 23.02 11.3425 23.0052C11.2364 22.9578 11.1304 22.9101 11.0244 22.8623C10.9493 22.8287 10.8742 22.795 10.7991 22.7614C10.5994 22.6721 10.3999 22.5823 10.2004 22.4925C10.0793 22.438 9.95822 22.3836 9.83711 22.3292C9.4409 22.1512 9.0448 21.9729 8.6488 21.7944C8.36845 21.6681 8.08797 21.542 7.80725 21.4165C7.76137 21.396 7.76137 21.396 7.71456 21.3751C7.65508 21.3485 7.5956 21.3219 7.53612 21.2953C7.06896 21.0863 6.60329 20.875 6.14062 20.6562C6.17196 19.9504 6.21932 19.2464 6.27246 18.5419C6.28069 18.432 6.28892 18.322 6.29715 18.2121C6.31424 17.984 6.33143 17.7558 6.34868 17.5277C6.37082 17.2348 6.39264 16.9418 6.4144 16.6488C6.43122 16.4229 6.44824 16.1969 6.46531 15.971C6.47345 15.8628 6.48153 15.7547 6.48953 15.6465C6.50065 15.4965 6.51204 15.3465 6.5235 15.1966C6.5284 15.1293 6.5284 15.1293 6.53339 15.0607C6.53654 15.0202 6.53969 14.9797 6.54294 14.938C6.5456 14.9026 6.54826 14.8672 6.55101 14.8307C6.5625 14.75 6.5625 14.75 6.60938 14.7031Z" fill="#1FA4E7"/>
<path d="M11.8514 1.75018C11.8946 1.75045 11.9379 1.75071 11.9824 1.75097C12.049 1.75132 12.049 1.75132 12.1169 1.75167C13.2478 1.77026 14.3148 2.17368 15.1875 2.89062C15.2274 2.92283 15.2674 2.95504 15.3085 2.98822C16.2537 3.79045 16.8276 4.94846 16.9688 6.17187C17.1243 8.18411 16.2357 9.95147 15.0469 11.5156C15.0198 11.5519 15.0198 11.5519 14.9921 11.5889C14.4919 12.256 13.9102 12.843 13.3242 13.4346C13.2843 13.4751 13.2445 13.5155 13.2034 13.5573C12.8687 13.8924 12.5154 14.2447 12.0938 14.4687C11.8995 14.4609 11.7841 14.3818 11.6338 14.2637C11.5967 14.2353 11.5597 14.2069 11.5215 14.1776C11.4938 14.1499 11.4661 14.1223 11.4375 14.0937C11.4375 13.9531 11.4375 13.9531 11.501 13.878C11.5305 13.8512 11.56 13.8244 11.5904 13.7968C11.6232 13.7665 11.6561 13.7362 11.6899 13.705C11.7255 13.6728 11.7612 13.6406 11.7979 13.6074C11.8713 13.5396 11.9448 13.4716 12.0181 13.4036C12.0548 13.3698 12.0914 13.3359 12.1292 13.3011C12.4994 12.9564 12.8504 12.6024 13.1646 12.2052C13.2683 12.0748 13.3765 11.9494 13.4854 11.8232C14.8908 10.1302 15.7679 8.17673 15.5999 5.9527C15.4676 4.79669 14.7775 3.69234 13.9087 2.94317C13.196 2.38718 12.3416 1.96801 11.4375 1.85937C11.5702 1.72665 11.6698 1.75218 11.8514 1.75018Z" fill="#E7343F"/>
<path d="M17.4375 15.4062C17.5667 15.5341 17.6942 15.6618 17.8132 15.7992C17.8501 15.8417 17.8501 15.8417 17.8877 15.885C17.9259 15.9294 17.9259 15.9294 17.9648 15.9746C17.9916 16.0056 18.0184 16.0366 18.046 16.0686C18.2697 16.3285 18.4877 16.5926 18.7031 16.8594C18.9486 17.1616 19.197 17.461 19.4491 17.7577C19.6199 17.959 19.7872 18.1631 19.9539 18.368C20.0755 18.5158 20.1992 18.6618 20.3232 18.8076C20.5046 19.0209 20.6812 19.2373 20.8552 19.4567C20.9706 19.5997 21.089 19.7399 21.208 19.8799C21.3989 20.1044 21.5871 20.3308 21.7733 20.5592C22.1393 21.0081 22.5074 21.4552 22.8825 21.8966C23.0519 22.0962 23.2188 22.2976 23.3835 22.501C23.4533 22.5868 23.5241 22.6719 23.5955 22.7563C23.6304 22.798 23.6653 22.8398 23.7012 22.8828C23.7327 22.92 23.7643 22.9573 23.7968 22.9956C23.8174 23.028 23.8381 23.0604 23.8594 23.0938C23.8439 23.1402 23.8284 23.1866 23.8125 23.2344C23.4935 23.2131 23.2542 23.1456 22.9666 23.0095C22.9271 22.9915 22.8877 22.9734 22.8471 22.9548C22.7194 22.8962 22.5921 22.8368 22.4648 22.7773C22.3759 22.7364 22.287 22.6955 22.198 22.6546C22.0208 22.5732 21.8437 22.4916 21.6667 22.4097C21.347 22.2621 21.0257 22.118 20.7041 21.9746C20.597 21.9267 20.49 21.8788 20.3829 21.8309C20.3047 21.7959 20.3047 21.7959 20.2249 21.7602C20.0522 21.6829 19.8795 21.6055 19.7069 21.528C19.6467 21.501 19.5865 21.474 19.5262 21.447C19.4146 21.3969 19.303 21.3468 19.1913 21.2967C18.7478 21.0978 18.3036 20.9004 17.8594 20.7031C17.7024 18.9384 17.5606 17.1737 17.4375 15.4062Z" fill="#44C767"/>
<path d="M17.297 13.0156C17.4819 13.163 17.6337 13.3062 17.7804 13.4932C17.9193 13.667 18.0609 13.8357 18.2111 14C18.3562 14.1592 18.4947 14.3216 18.63 14.4893C18.811 14.713 19.002 14.925 19.1969 15.1367C19.3468 15.3037 19.4867 15.4778 19.6276 15.6523C19.7376 15.785 19.8521 15.9122 19.9689 16.0391C20.1607 16.2475 20.3403 16.4631 20.5182 16.6836C20.6283 16.8163 20.7427 16.9435 20.8595 17.0703C21.0523 17.2798 21.2331 17.4964 21.4119 17.718C21.5137 17.8413 21.619 17.96 21.7267 18.0781C21.8718 18.2373 22.0103 18.3998 22.1456 18.5674C22.2898 18.7457 22.4386 18.9172 22.5939 19.0859C22.7851 19.2938 22.9657 19.5077 23.1423 19.7281C23.2414 19.8536 23.2414 19.8536 23.3281 19.9355C23.5803 20.1912 23.6476 20.4179 23.7026 20.7672C23.7115 20.8176 23.7204 20.868 23.7295 20.9199C23.748 21.0259 23.7659 21.132 23.7832 21.2383C23.8096 21.3998 23.8377 21.5609 23.8662 21.7221C23.884 21.8257 23.9017 21.9292 23.9194 22.0328C23.9276 22.0805 23.9358 22.1282 23.9442 22.1773C24.0446 22.7983 24.0446 22.7983 24.0001 23.0469C23.9537 23.0778 23.9073 23.1088 23.8595 23.1406C23.5628 22.7968 23.2683 22.4518 22.982 22.0991C22.8611 21.9517 22.7379 21.8063 22.6144 21.6611C22.433 21.4478 22.2564 21.2315 22.0825 21.012C21.9671 20.869 21.8486 20.7288 21.7296 20.5889C21.5387 20.3644 21.3505 20.138 21.1644 19.9095C20.7982 19.4605 20.4301 19.0132 20.0548 18.5718C19.8878 18.3752 19.7246 18.1758 19.5618 17.9758C19.4402 17.8279 19.3165 17.6819 19.1925 17.5361C19.0111 17.3228 18.8345 17.1065 18.6606 16.887C18.5238 16.7176 18.3827 16.552 18.2416 16.3861C18.0328 16.1403 17.828 15.8914 17.6251 15.6406C17.5914 15.6063 17.5577 15.572 17.5229 15.5366C17.4012 15.3506 17.3966 15.1793 17.382 14.9609C17.3785 14.9189 17.3751 14.8769 17.3715 14.8336C17.3648 14.7498 17.3583 14.666 17.3523 14.5821C17.3453 14.4885 17.3368 14.3949 17.3279 14.3014C17.288 13.8731 17.2926 13.4453 17.297 13.0156Z" fill="#FCBB25"/>
<path d="M6.75 12.6875C6.73918 12.9685 6.72569 13.2491 6.71011 13.5299C6.70328 13.6688 6.69934 13.8075 6.69562 13.9465C6.6914 14.0337 6.68707 14.1209 6.68262 14.208C6.68226 14.2487 6.68191 14.2894 6.68154 14.3314C6.67029 14.5058 6.65546 14.6144 6.52288 14.7348C6.39872 14.8114 6.27232 14.8747 6.14062 14.9375C6.03827 14.9912 5.93598 15.0451 5.83374 15.099C5.75033 15.1417 5.66692 15.1844 5.58342 15.227C5.14272 15.4516 4.70445 15.6797 4.27148 15.9189C3.8285 16.1634 3.37968 16.3955 2.92945 16.6263C2.47812 16.8577 2.03034 17.0944 1.58725 17.3414C1.37447 17.4594 1.16311 17.565 0.9375 17.6562C0.966174 17.2522 1.02048 16.8529 1.08747 16.4537C1.09889 16.3839 1.10964 16.314 1.11975 16.244C1.20273 15.6722 1.20273 15.6722 1.33525 15.5069C1.43374 15.4428 1.53125 15.4026 1.64062 15.3594C1.71822 15.3192 1.79579 15.2789 1.8729 15.2378C1.96072 15.1912 2.04908 15.1458 2.13771 15.1008C2.62786 14.8515 3.11658 14.6005 3.59766 14.334C4.07923 14.0676 4.56875 13.8175 5.05876 13.5671C5.52641 13.328 5.99108 13.0852 6.44909 12.8279C6.69921 12.6875 6.69921 12.6875 6.75 12.6875Z" fill="#FDDB56"/>
<path d="M8.8125 14.8438C9.40963 14.8679 9.99596 14.927 10.5879 15.0078C10.7068 15.0238 10.8258 15.0398 10.9447 15.0556C11.0177 15.0653 11.0906 15.0751 11.1636 15.0852C11.4583 15.1247 11.7492 15.1471 12.0469 15.1719C12.0314 16.7188 12.0159 18.2656 12 19.8594C11.8786 19.7076 11.7727 19.5699 11.6704 19.4078C11.6443 19.3667 11.6182 19.3255 11.5913 19.2831C11.5638 19.2393 11.5362 19.1955 11.5078 19.1504C11.4643 19.0816 11.4643 19.0816 11.4199 19.0115C11.3319 18.8723 11.2441 18.7331 11.1562 18.5938C11.1079 18.5172 11.0596 18.4407 11.0112 18.3641C10.9429 18.256 10.8746 18.1479 10.8064 18.0397C10.6287 17.7582 10.4503 17.4771 10.2715 17.1963C10.2442 17.1534 10.2169 17.1105 10.1888 17.0664C10.0481 16.8454 9.9073 16.6245 9.76648 16.4036C9.51201 16.0044 9.25775 15.605 9.00586 15.2041C8.98602 15.1727 8.96619 15.1413 8.94576 15.1089C8.8125 14.8961 8.8125 14.8961 8.8125 14.8438Z" fill="#45C767"/>
<path d="M7.03124 9.45312C7.59242 9.62396 8.00437 9.87876 8.29687 10.3906C8.37016 10.5123 8.44475 10.6331 8.51952 10.7539C8.53926 10.786 8.559 10.818 8.57934 10.8511C8.77175 11.1593 8.99033 11.4419 9.22047 11.7226C9.27736 11.7921 9.33344 11.8623 9.38946 11.9326C9.6156 12.2143 9.85458 12.4814 10.1001 12.7461C10.2374 12.8953 10.3695 13.0479 10.5 13.2031C9.75174 13.1724 9.01837 13.0649 8.28278 12.928C7.92641 12.8637 7.56697 12.8227 7.20733 12.7813C7.16082 12.7759 7.11432 12.7704 7.0664 12.7648C7.00368 12.7576 7.00368 12.7576 6.93969 12.7504C6.84374 12.7344 6.84374 12.7344 6.79687 12.6875C6.77686 12.2925 6.80409 11.8975 6.83624 11.5039C6.84029 11.4523 6.84434 11.4006 6.84851 11.3474C6.85703 11.2395 6.86566 11.1316 6.8744 11.0236C6.88776 10.8585 6.9007 10.6933 6.9136 10.5281C6.92197 10.4227 6.93036 10.3173 6.93877 10.2119C6.94263 10.1627 6.94649 10.1136 6.95047 10.0629C6.95422 10.017 6.95797 9.97116 6.96183 9.92389C6.96506 9.88378 6.96829 9.84367 6.97161 9.80234C6.98476 9.68399 7.00621 9.5695 7.03124 9.45312Z" fill="#45C767"/>
<path d="M19.6756 10.8369C19.7183 10.8613 19.7609 10.8858 19.8049 10.9111C19.8502 10.9375 19.8956 10.964 19.9424 10.9912C20.0385 11.0465 20.1347 11.1016 20.231 11.1567C20.2803 11.185 20.3296 11.2133 20.3804 11.2424C20.6234 11.3804 20.8687 11.5141 21.1143 11.6475C21.1592 11.6719 21.2042 11.6963 21.2505 11.7215C21.3545 11.7779 21.4585 11.8343 21.5625 11.8906C21.547 11.9216 21.5316 11.9525 21.5156 11.9844C21.4135 12.0169 21.4135 12.0169 21.2765 12.0465C21.1996 12.0634 21.1996 12.0634 21.1211 12.0807C21.0648 12.0927 21.0086 12.1046 20.9506 12.1169C20.8922 12.1297 20.8339 12.1424 20.7738 12.1555C20.6174 12.1897 20.4608 12.2233 20.3041 12.2569C20.1501 12.29 19.9961 12.3235 19.842 12.357C19.6595 12.3967 19.4769 12.4363 19.2943 12.4756C18.9907 12.5411 18.6875 12.6075 18.3847 12.6762C18.3267 12.6893 18.2688 12.7024 18.2091 12.7159C18.0996 12.7408 17.9901 12.7658 17.8808 12.7911C17.8319 12.8022 17.7831 12.8132 17.7328 12.8246C17.6903 12.8344 17.6478 12.8441 17.604 12.8542C17.4835 12.8752 17.3721 12.8788 17.25 12.875C17.234 12.6993 17.2185 12.5235 17.2031 12.3477C17.1987 12.2987 17.1942 12.2498 17.1896 12.1993C17.1604 11.8612 17.1508 11.5269 17.1563 11.1875C17.5925 11.0591 18.035 10.9543 18.4764 10.8455C18.5878 10.8178 18.6991 10.7897 18.8102 10.7612C18.8892 10.7417 18.8892 10.7417 18.9697 10.7217C19.0134 10.7106 19.0571 10.6996 19.1021 10.6882C19.3235 10.6572 19.4864 10.727 19.6756 10.8369Z" fill="#FCBB25"/>
<path d="M17.3915 9.56317C17.4613 9.60296 17.4613 9.60296 17.5325 9.64356C17.5848 9.67301 17.6371 9.70246 17.691 9.73281C17.7461 9.76457 17.8013 9.79634 17.8564 9.82813C17.913 9.86022 17.9696 9.89227 18.0262 9.92427C18.138 9.98754 18.2497 10.0511 18.3612 10.1149C18.531 10.2119 18.7015 10.3078 18.8721 10.4034C19.0035 10.4769 19.1346 10.5509 19.2656 10.625C19.2188 10.7188 19.2188 10.7188 19.1265 10.7515C19.0862 10.7613 19.0459 10.7711 19.0043 10.7812C18.9591 10.7923 18.9138 10.8035 18.8672 10.815C18.8179 10.8267 18.7686 10.8385 18.7178 10.8506C18.6668 10.8632 18.6159 10.8758 18.5634 10.8888C18.3223 10.948 18.0815 11.0038 17.8374 11.0491C17.1693 11.1763 16.5808 11.432 15.9692 11.7199C15.6682 11.8612 15.3638 11.9944 15.0582 12.1255C14.9722 12.1624 14.8864 12.1998 14.8006 12.2372C14.7229 12.2706 14.7229 12.2706 14.6437 12.3046C14.5981 12.3243 14.5525 12.344 14.5055 12.3643C14.3906 12.4063 14.3906 12.4063 14.25 12.4063C14.2945 12.3647 14.3389 12.3231 14.3848 12.2803C14.7573 11.9055 15.0554 11.463 15.3545 11.0293C15.3807 10.9914 15.4069 10.9535 15.4339 10.9145C15.5531 10.7396 15.6661 10.5657 15.7641 10.378C16.0679 9.79929 16.7018 9.2553 17.3915 9.56317Z" fill="#4DE065"/>
<path d="M12 19.9062C12.2877 20.1528 12.5537 20.393 12.798 20.6812C13.0211 20.9374 13.2641 21.1737 13.5059 21.4121C14.09 21.9881 14.09 21.9881 14.25 22.2031C14.25 22.2341 14.25 22.265 14.25 22.2969C13.8833 22.4617 13.5166 22.6262 13.1496 22.7904C12.9791 22.8666 12.8087 22.9431 12.6383 23.0198C12.572 23.0493 12.5057 23.0789 12.4395 23.1084C12.3559 23.1458 12.3559 23.1458 12.2706 23.184C12.1406 23.2344 12.1406 23.2344 12 23.2344C12 22.1361 12 21.0378 12 19.9062Z" fill="#FCDB56"/>
<path d="M17.0156 9.45312C17.2105 9.48129 17.3524 9.5471 17.5233 9.64355C17.5759 9.67301 17.6285 9.70246 17.6827 9.73281C17.7386 9.76457 17.7946 9.79635 17.8505 9.82812C17.9075 9.8602 17.9646 9.89225 18.0216 9.92427C18.1344 9.98763 18.247 10.0512 18.3596 10.1149C18.4948 10.1914 18.6302 10.2676 18.7657 10.3436C18.9325 10.4371 19.0991 10.5309 19.2656 10.625C19.2187 10.7188 19.2187 10.7188 19.1242 10.7522C19.083 10.7623 19.0418 10.7724 18.9993 10.7828C18.9532 10.7943 18.9071 10.8057 18.8596 10.8175C18.8099 10.8294 18.7602 10.8413 18.7089 10.8535C18.6585 10.8658 18.6081 10.8781 18.5562 10.8908C17.3282 11.1875 17.3282 11.1875 17.1093 11.1875C17.0496 10.6079 16.9992 10.0362 17.0156 9.45312Z" fill="#45C867"/>
</g>
<defs>
<clipPath id="clip0_4170_3951">
<rect width="24" height="24" fill="white" transform="translate(0 0.5)"/>
</clipPath>
</defs>
</svg>
