<svg width="112" height="112" viewBox="0 0 112 112" fill="none" xmlns="http://www.w3.org/2000/svg">
<path d="M56.332 6.04801C57.0585 6.31037 57.1899 6.46545 57.6361 7.13477C57.6926 7.59893 57.6926 7.59893 57.6957 8.14654C57.6978 8.35435 57.7 8.56216 57.7023 8.77627C57.7024 9.00391 57.7025 9.23155 57.7027 9.46609C57.7045 9.70612 57.7063 9.94614 57.7082 10.1934C57.7134 10.9891 57.7153 11.7847 57.7168 12.5804C57.7187 13.1324 57.7207 13.6844 57.7227 14.2364C57.7263 15.3945 57.728 16.5525 57.7286 17.7106C57.7294 19.0483 57.7359 20.386 57.745 21.7237C57.7534 23.0113 57.7559 24.2989 57.7561 25.5865C57.757 26.134 57.7598 26.6815 57.7643 27.229C57.7701 27.9945 57.7691 28.7597 57.7664 29.5252C57.7712 29.8654 57.7712 29.8654 57.7761 30.2124C57.7605 31.7508 57.7605 31.7508 57.1123 32.5947C56.3106 33.1713 55.6976 33.2345 54.7341 33.295C48.0265 33.7789 42.5587 36.2517 38.0609 41.3812C36.1191 43.7833 34.6831 46.585 33.7275 49.5182C33.6818 49.6585 33.6361 49.7988 33.589 49.9433C31.7335 55.965 32.7913 62.1443 35.6166 67.6187C38.5212 72.8552 43.5378 76.8492 49.2912 78.5124C55.651 80.1121 61.9782 79.0878 67.6343 75.8177C73.2286 72.2526 76.8736 66.9137 78.3116 60.4537C78.4479 59.7481 78.5267 59.0482 78.5859 58.3328C78.6014 58.159 78.6169 57.9852 78.6329 57.8062C78.6627 57.4588 78.6881 57.1109 78.7086 56.7628C78.7225 56.6009 78.7363 56.4391 78.7506 56.2723C78.7652 56.0557 78.7652 56.0557 78.7801 55.8347C79.0409 55.0877 79.3946 54.7835 80.0233 54.3C80.8092 54.1376 81.5839 54.1537 82.384 54.1628C82.7409 54.1605 82.7409 54.1605 83.1051 54.1581C83.8914 54.1544 84.6775 54.1586 85.4638 54.1633C86.0103 54.1631 86.5568 54.1626 87.1033 54.1617C88.2486 54.1611 89.3938 54.1641 90.539 54.1702C91.8617 54.1772 93.1843 54.1772 94.507 54.1734C95.7812 54.17 97.0552 54.1715 98.3294 54.1752C98.8708 54.1763 99.4123 54.1762 99.9537 54.1748C100.71 54.1736 101.467 54.1781 102.223 54.184C102.559 54.1819 102.559 54.1819 102.902 54.1797C103.866 54.1926 104.426 54.2032 105.261 54.7147C105.755 55.2631 105.877 55.478 105.942 56.2154C105.881 57.0042 105.719 57.374 105.236 57.9949C104.628 58.3649 104.178 58.4835 103.47 58.479C103.296 58.479 103.122 58.4789 102.943 58.4789C102.664 58.4755 102.664 58.4755 102.38 58.4721C102.188 58.4715 101.996 58.4709 101.799 58.4702C101.188 58.4678 100.576 58.4623 99.9652 58.4568C99.5503 58.4546 99.1355 58.4526 98.7206 58.4509C97.7045 58.4461 96.6886 58.4386 95.6725 58.4296C95.6519 58.5858 95.6313 58.7419 95.61 58.9028C94.5971 66.4403 92.6106 73.4994 88.0653 79.73C87.9022 79.9576 87.7391 80.1851 87.5711 80.4195C83.8986 85.3936 79.1506 89.2341 73.7201 92.1191C73.583 92.1924 73.446 92.2657 73.3048 92.3412C71.5171 93.2799 69.6498 93.9538 67.7429 94.605C67.5196 94.6821 67.2962 94.7592 67.0661 94.8387C65.9134 95.2192 64.9375 95.5092 63.7219 95.3793C63.0811 95.045 62.7336 94.801 62.4976 94.1032C62.3659 93.3619 62.3811 92.8745 62.6352 92.1598C63.5182 91.194 64.9513 90.9058 66.1714 90.5225C68.45 89.8035 70.5434 88.9253 72.6333 87.772C72.865 87.6468 73.0967 87.5216 73.3355 87.3925C81.4991 82.8196 87.3356 74.979 89.9518 66.0582C90.6239 63.5892 91.1416 60.9923 91.1082 58.4296C90.0327 58.4243 88.9573 58.4203 87.8819 58.4177C87.5159 58.4166 87.1499 58.4151 86.7839 58.4132C86.2584 58.4106 85.7329 58.4094 85.2074 58.4084C85.0433 58.4073 84.8791 58.4062 84.71 58.405C83.8603 58.3876 83.8603 58.3876 83.0662 58.647C82.9205 59.0972 82.9205 59.0972 82.8242 59.6471C82.7823 59.8552 82.7403 60.0633 82.6971 60.2778C82.653 60.5017 82.609 60.7256 82.5636 60.9563C81.016 68.3425 77.2348 74.809 70.8436 79.0466C67.2299 81.3668 63.4059 82.7136 59.1716 83.4358C58.4506 83.509 58.4506 83.509 57.8534 83.8597C57.8308 84.5233 57.8222 85.1821 57.8226 85.8459C57.8219 86.0544 57.8211 86.2629 57.8203 86.4777C57.8187 86.9322 57.8176 87.3867 57.8168 87.8411C57.8152 88.5599 57.8118 89.2787 57.8078 89.9975C57.7964 92.0418 57.786 94.0861 57.7826 96.1305C57.7804 97.3794 57.7741 98.6282 57.7649 99.8771C57.7622 100.354 57.7611 100.83 57.7616 101.307C57.7621 101.974 57.7573 102.64 57.7513 103.307C57.7527 103.505 57.7542 103.702 57.7556 103.906C57.7357 105.245 57.7357 105.245 57.2214 105.928C56.4468 106.471 55.9755 106.521 55.0279 106.464C54.3013 106.202 54.17 106.047 53.7238 105.377C53.6765 104.737 53.6531 104.116 53.6491 103.475C53.6459 103.289 53.6427 103.102 53.6394 102.911C53.6259 102.114 53.6173 101.316 53.6082 100.519C53.6009 99.9378 53.5911 99.3562 53.5811 98.7746C53.58 98.5935 53.5788 98.4123 53.5777 98.2257C53.6027 97.2427 53.6027 97.2427 53.0717 96.4661C52.5578 96.3458 52.5578 96.3458 51.9535 96.2793C51.7233 96.2482 51.4931 96.2172 51.2559 96.1852C51.0079 96.1523 50.7598 96.1195 50.5043 96.0857C40.1848 94.6049 30.4657 89.1937 24.1419 80.8083C21.3653 77.0164 19.2079 72.8908 17.7657 68.4142C17.712 68.2488 17.6583 68.0834 17.603 67.913C16.7459 65.1229 16.7459 65.1229 17.2495 63.877C17.6829 63.3839 17.879 63.1653 18.5129 62.994C19.7549 62.994 19.7549 62.994 20.2517 63.2114C21.1 64.2243 21.3945 65.2935 21.7324 66.5531C24.1891 75.178 30.0381 82.8647 37.8707 87.2966C38.4416 87.6085 39.0172 87.9098 39.5959 88.2067C39.7289 88.2759 39.8618 88.345 39.9988 88.4162C42.9427 89.9293 46.0596 90.8813 49.2952 91.5485C49.4701 91.585 49.645 91.6215 49.8252 91.659C50.9969 91.8845 52.0957 91.951 53.2891 91.9017C53.6707 91.52 53.5343 91.0194 53.5366 90.511C53.5362 90.3471 53.5357 90.1832 53.5353 90.0143C53.5355 89.8468 53.5357 89.6793 53.5359 89.5067C53.5361 89.1517 53.5357 88.7967 53.5348 88.4417C53.5336 87.8974 53.5347 87.3531 53.5361 86.8088C53.536 86.4645 53.5357 86.1203 53.5353 85.776C53.5359 85.5308 53.5359 85.5308 53.5366 85.2806C53.5492 84.4337 53.5492 84.4337 53.2891 83.6424C52.8316 83.5036 52.8316 83.5036 52.2719 83.4157C51.9516 83.3561 51.9516 83.3561 51.6249 83.2953C51.2786 83.2317 51.2786 83.2317 50.9254 83.1669C43.6478 81.7329 37.3032 77.8712 33.0754 71.6881C30.6631 68.0449 29.3076 64.1039 28.6367 59.8102C28.5524 59.1121 28.5524 59.1121 28.2937 58.647C27.7068 58.4513 27.3706 58.4022 26.7687 58.4011C26.5916 58.4002 26.4146 58.3994 26.2322 58.3985C25.9421 58.3986 25.9421 58.3986 25.646 58.3988C25.4417 58.398 25.2374 58.3973 25.0269 58.3965C24.5828 58.3949 24.1388 58.3938 23.6948 58.393C22.9924 58.3914 22.29 58.388 21.5876 58.384C19.5904 58.3726 17.5932 58.3622 15.596 58.3588C14.3748 58.3566 13.1536 58.3502 11.9324 58.3411C11.4667 58.3384 11.0009 58.3373 10.5351 58.3378C9.88404 58.3383 9.23327 58.3335 8.58228 58.3275C8.38929 58.3289 8.1963 58.3304 7.99746 58.3318C6.69009 58.3119 6.69009 58.3119 6.01097 57.7976C5.46449 57.0254 5.36204 56.5555 5.47182 55.6041C6.22032 54.3938 6.22032 54.3938 6.98841 54.1807C7.51074 54.1353 8.01938 54.1308 8.5436 54.1403C8.73349 54.1384 8.92338 54.1365 9.11902 54.1344C9.72375 54.1292 10.328 54.1327 10.9328 54.137C11.5389 54.1366 12.145 54.1345 12.7512 54.1301C13.1278 54.1279 13.5045 54.1283 13.8811 54.1315C14.9568 54.1332 14.9568 54.1332 15.9047 53.6479C16.0375 53.1997 16.0375 53.1997 16.0728 52.6724C16.0944 52.4717 16.1161 52.271 16.1384 52.0643C16.1599 51.8472 16.1814 51.6301 16.2035 51.4065C17.1531 43.2187 20.3363 35.4403 25.9028 29.3046C26.0779 29.1059 26.253 28.9073 26.4335 28.7026C26.9028 28.173 27.3785 27.6505 27.859 27.1311C27.9753 27.003 28.0915 26.875 28.2113 26.7431C32.0902 22.6514 37.4464 19.6807 42.6796 17.7578C42.9081 17.6729 43.1365 17.588 43.3719 17.5005C44.6252 17.0585 45.6557 16.7755 46.9859 16.9156C47.6689 17.3567 47.9938 17.6697 48.1839 18.4718C48.2546 19.4135 48.2546 19.4135 48.0726 19.9585C47.1643 20.8919 46.291 21.2653 45.0433 21.6158C41.5839 22.6823 38.1393 24.2829 35.2489 26.479C35.0637 26.6191 34.8785 26.7592 34.6877 26.9035C33.3706 27.9313 32.1233 29.0349 30.9019 30.174C30.7386 30.3256 30.5752 30.4771 30.4069 30.6333C28.2261 32.7298 26.5376 35.168 25.0334 37.7813C24.9612 37.905 24.8889 38.0287 24.8145 38.1561C22.1977 42.6707 20.0352 48.5788 20.469 53.8653C20.8386 54.2348 21.3006 54.1104 21.7934 54.1128C21.9479 54.1124 22.1023 54.1119 22.2613 54.1115C22.4192 54.1117 22.5771 54.1119 22.7397 54.1121C23.0743 54.1123 23.4088 54.1119 23.7434 54.111C24.2562 54.1098 24.769 54.1109 25.2818 54.1123C25.6062 54.1122 25.9307 54.1119 26.2552 54.1115C26.4091 54.1119 26.5631 54.1124 26.7217 54.1128C27.5349 54.121 27.5349 54.121 28.2937 53.8653C28.436 53.3971 28.436 53.3971 28.528 52.8252C28.5689 52.6084 28.6097 52.3915 28.6518 52.1681C28.695 51.9347 28.7382 51.7013 28.7827 51.4608C30.1769 44.4293 33.9766 37.8435 40.0194 33.7614C43.6877 31.3778 47.4945 29.8778 51.8128 29.1617C52.0013 29.1296 52.1898 29.0974 52.384 29.0643C52.5533 29.0371 52.7227 29.0098 52.8971 28.9818C53.0265 28.9449 53.1558 28.9079 53.2891 28.8699C53.6622 28.1237 53.5377 27.2655 53.5373 26.4443C53.538 26.2379 53.5388 26.0315 53.5395 25.8188C53.5411 25.3695 53.5423 24.9203 53.5431 24.471C53.5446 23.7604 53.548 23.0499 53.5521 22.3393C53.5635 20.3185 53.5739 18.2978 53.5773 16.277C53.5794 15.0419 53.5858 13.8069 53.5949 12.5719C53.5976 12.1007 53.5987 11.6294 53.5982 11.1582C53.5977 10.4993 53.6025 9.84069 53.6086 9.18188C53.6071 8.98651 53.6057 8.79115 53.6042 8.58986C53.6242 7.26664 53.6242 7.26664 54.1385 6.5857C54.9126 6.04033 55.3838 5.99112 56.332 6.04801Z" fill="white"/>
<path d="M87.1959 13.8726C87.9442 14.3344 88.2209 14.5569 88.5 15.3941C88.5309 16.0163 88.5507 16.6342 88.5611 17.2568C88.5651 17.4387 88.5691 17.6206 88.5732 17.808C88.5903 18.5867 88.6051 19.3653 88.62 20.144C88.6312 20.7122 88.6437 21.2803 88.6562 21.8484C88.6606 22.1146 88.6606 22.1146 88.6651 22.3862C88.607 23.1949 88.607 23.1949 88.9347 23.8708C89.5327 23.8975 90.1261 23.9112 90.7244 23.9166C91.0952 23.9227 91.4659 23.9289 91.8366 23.9353C92.4228 23.9442 93.009 23.9522 93.5952 23.958C94.1598 23.964 94.7242 23.974 95.2888 23.9845C95.5504 23.9856 95.5504 23.9856 95.8172 23.9867C96.8129 24.0084 97.4733 24.0958 98.2808 24.7402C98.8376 25.5755 98.8619 25.9212 98.7155 26.9137C97.5369 28.6536 95.7533 30.1288 94.2708 31.6122C93.9875 31.8962 93.7043 32.1801 93.421 32.4641C92.8305 33.056 92.2394 33.6475 91.6481 34.2387C90.8906 34.9962 90.1345 35.7552 89.3789 36.5146C88.7958 37.1 88.2118 37.6845 87.6274 38.2687C87.3481 38.5483 87.0692 38.8282 86.7906 39.1085C86.4021 39.4991 86.0123 39.8883 85.622 40.2773C85.5076 40.3929 85.3932 40.5085 85.2754 40.6276C84.5747 41.3223 84.0287 41.8547 83.0285 41.9612C82.858 41.9595 82.6876 41.9578 82.512 41.9561C82.3175 41.9555 82.123 41.9549 81.9226 41.9543C81.7139 41.952 81.5051 41.9497 81.29 41.9474C80.8451 41.9486 80.4002 41.9502 79.9553 41.9521C79.2561 41.953 78.5571 41.9517 77.8578 41.9445C77.1814 41.9386 76.5055 41.9423 75.8291 41.9474C75.5186 41.9407 75.5186 41.9407 75.2018 41.9339C73.8177 41.9538 73.1204 42.2718 72.1381 43.2503C72.0146 43.3821 71.8912 43.5139 71.7639 43.6497C71.6356 43.7734 71.5074 43.8972 71.3752 44.0246C70.7494 44.6287 70.1656 45.2548 69.6038 45.9184C68.471 47.218 67.2399 48.4224 66.0203 49.6396C65.7603 49.8997 65.5004 50.1598 65.2405 50.42C64.6992 50.9616 64.1575 51.5028 63.6155 52.0438C62.9202 52.7378 62.2259 53.4329 61.5319 54.1282C60.9969 54.6639 60.4615 55.1991 59.9259 55.7342C59.6695 55.9904 59.4132 56.2469 59.1571 56.5035C58.8008 56.8603 58.4439 57.2165 58.0867 57.5724C57.8837 57.7752 57.6808 57.978 57.4717 58.1869C56.7516 58.8662 56.2517 58.9555 55.2546 58.9373C54.8105 58.8643 54.8105 58.8643 54.1585 58.4296C53.7111 57.7585 53.5344 57.3012 53.5952 56.4885C54.0978 54.7299 56.4526 53.0675 57.7345 51.7943C58.1537 51.3779 58.5722 50.9608 58.9906 50.5435C60.0291 49.5078 61.0689 48.4733 62.1086 47.4388C62.9895 46.5622 63.87 45.6851 64.7499 44.8074C65.1597 44.3991 65.57 43.9914 65.9804 43.5838C67.123 42.446 68.2558 41.3131 69.2959 40.079C69.5987 39.7278 69.8962 39.3942 70.2425 39.0853C70.3859 39.0853 70.5294 39.0853 70.6772 39.0853C70.6721 38.8992 70.6721 38.8992 70.6669 38.7092C70.6331 37.4116 70.6103 36.1142 70.5936 34.8163C70.586 34.3327 70.5756 33.8491 70.5624 33.3655C70.5438 32.6684 70.5353 31.9717 70.5286 31.2743C70.5168 30.9526 70.5168 30.9526 70.5048 30.6243C70.5042 29.5777 70.5705 28.8548 71.2605 28.042C71.5693 27.7344 71.8827 27.4313 72.1986 27.131C72.4124 26.9118 72.625 26.6915 72.8368 26.4703C74.3458 24.8963 75.8843 23.3505 77.4195 21.8022C78.1972 21.0178 78.9731 20.2318 79.7448 19.4417C80.4953 18.6734 81.25 17.9095 82.0078 17.1484C82.2948 16.8587 82.5803 16.5676 82.8643 16.2749C83.2611 15.8664 83.6631 15.4638 84.0667 15.0621C84.182 14.9408 84.2974 14.8196 84.4162 14.6947C85.356 13.7777 85.9478 13.7224 87.1959 13.8726ZM83.2835 21.9146C81.8402 23.1239 80.5058 24.4345 79.1756 25.7649C78.8153 26.1247 78.4534 26.4827 78.0913 26.8406C77.5202 27.4076 76.9588 27.9827 76.4038 28.5654C76.1433 28.8362 75.8759 29.1003 75.6076 29.3634C74.3055 30.775 74.3964 32.2121 74.4672 34.0591C74.4705 34.3454 74.4737 34.6318 74.477 34.9268C74.4508 36.4388 74.4508 36.4388 75.0242 37.7812C77.2036 38.5387 80.0452 38.6938 82.1968 37.7812C83.8905 36.7234 85.2812 35.2782 86.6525 33.8417C86.8312 33.655 87.01 33.4683 87.1941 33.2759C87.707 32.732 88.2112 32.182 88.7105 31.6258C88.9386 31.3719 88.9386 31.3719 89.1712 31.113C89.9157 30.2457 90.4267 29.6291 90.4561 28.4351C89.8196 28.0723 89.3595 27.9468 88.629 27.941C88.4494 27.9365 88.2698 27.932 88.0848 27.9274C87.7095 27.9217 87.3343 27.9178 86.959 27.9155C85.5854 27.8769 85.5854 27.8769 84.9069 27.3806C84.4475 26.7087 84.3409 26.1361 84.3015 25.3421C84.2924 25.1677 84.2833 24.9933 84.2739 24.8136C84.2654 24.6325 84.2568 24.4513 84.248 24.2647C84.2386 24.081 84.2293 23.8974 84.2196 23.7082C84.1966 23.2552 84.1746 22.8023 84.1529 22.3493C83.866 22.2058 83.5791 22.0624 83.2835 21.9146Z" fill="white"/>
<path d="M56.9501 40.5737C57.4187 41.0415 57.4187 41.0415 57.6361 41.6664C57.6361 42.5023 57.4302 42.9487 56.984 43.6497C56.2869 44.1145 55.8003 44.1728 54.9828 44.2658C51.4457 44.6802 48.4427 46.087 46.1683 48.9061C44.1643 51.7379 43.3567 54.8171 43.819 58.2547C44.436 61.4161 46.1562 64.2404 48.8062 66.1048C51.9508 68.0353 55.0954 68.7216 58.7229 67.8708C61.7492 67.0907 64.1517 65.3372 65.8139 62.6858C66.8622 60.7173 67.3475 58.7029 67.5605 56.5015C67.6698 55.6221 67.801 55.1134 68.4841 54.5199C69.2552 54.0178 69.5614 53.8954 70.4598 54.0826C71.0028 54.4356 71.3669 54.6775 71.7639 55.1694C71.8907 55.8113 71.9314 56.2455 71.8998 56.881C71.895 57.0435 71.8903 57.2059 71.8854 57.3733C71.7066 61.1393 70.14 64.5535 67.6343 67.341C67.5216 67.4738 67.409 67.6066 67.2929 67.7435C64.5798 70.7293 60.4897 72.2661 56.5493 72.5575C56.4081 72.5692 56.2669 72.581 56.1214 72.5931C52.0656 72.7647 48.0135 71.2186 44.989 68.5636C44.6368 68.2323 44.2878 67.8974 43.943 67.5584C43.8065 67.4247 43.6701 67.2911 43.5295 67.1534C40.6391 64.0925 39.315 59.9301 39.387 55.7722C39.6202 51.3041 41.4426 47.2622 44.6895 44.1654C47.3415 41.8402 53.5393 38.3577 56.9501 40.5737Z" fill="white"/>
</svg>
